<svg width="200" height="53" viewBox="0 0 200 53" fill="none" xmlns="http://www.w3.org/2000/svg">
    <g clip-path="url(#clip0_2002_1614)">
        <path
            d="M39.4184 41.3453C38.3335 40.3788 37.1204 39.7346 35.6114 39.835C35.4865 39.8433 35.4155 39.8433 35.4726 40.0248C35.6931 40.725 35.869 41.4385 35.9845 42.1631C36.1311 43.0831 36.2088 44.0097 36.1683 44.9424C36.16 45.1393 36.2233 45.2187 36.412 45.2841C37.7706 45.7535 38.5789 47.1617 38.2414 48.5583C37.9693 49.6841 37.2426 50.4403 36.0945 50.6856C34.9386 50.9325 33.9509 50.5702 33.2363 49.6219C32.5673 48.7347 32.4718 47.7355 32.9443 46.7373C33.424 45.7241 34.2745 45.1865 35.3966 45.1271C35.6403 45.1144 35.6564 45.0234 35.6581 44.8347C35.6697 43.7628 35.5487 42.7052 35.3361 41.656C35.0707 40.3482 34.6171 39.1082 34.0119 37.9191C33.1492 36.2241 31.8717 34.8553 30.5892 33.4837C29.5954 32.4212 28.5755 31.3764 27.72 30.1962C27.0826 29.3174 26.5952 28.3536 26.332 27.2894C26.3259 27.2644 26.3104 27.2417 26.2815 27.1801C26.045 27.4753 25.9134 27.7999 25.7774 28.1189C25.4282 28.9356 25.2461 29.7979 25.1228 30.6712C25.0145 31.4358 24.9896 32.2087 24.944 32.9793C24.8735 34.185 24.954 35.3951 24.8385 36.5991C24.7131 37.9086 24.5088 39.2003 24.0552 40.4448C23.9014 40.8665 23.7487 41.287 23.5566 41.6921C23.5139 41.782 23.5511 41.7969 23.6049 41.8336C24.6576 42.5521 25.1383 43.6218 25.4376 44.8059C25.5436 45.227 25.6352 45.6492 25.6136 46.0859C25.6008 46.3439 25.7846 46.2241 25.8712 46.2102C26.6712 46.0859 27.4091 46.2496 28.1003 46.6568C29.3578 47.3981 29.9696 48.9117 29.6309 50.3088C29.2762 51.7714 28.0481 52.83 26.5097 52.8916C25.2205 52.9438 24.184 52.3817 23.5 51.2687C22.4418 49.5459 23.1597 47.3293 24.9296 46.4959C25.0306 46.4482 25.0851 46.3972 25.0834 46.2712C25.0612 44.8508 24.6548 43.5802 23.6493 42.5382C23.6427 42.5316 23.6371 42.5243 23.6305 42.5182C23.3218 42.2197 23.3284 42.2236 23.1213 42.6059C22.3513 44.0296 21.3858 45.3058 20.206 46.4166C20.1011 46.5154 20.0534 46.5697 20.1366 46.7256C20.8145 47.9985 20.3837 49.6036 19.1662 50.3909C17.962 51.1699 16.3714 50.9153 15.4608 49.7978C14.5137 48.6354 14.622 46.9753 15.7101 45.9605C16.8055 44.939 18.5055 44.9512 19.5887 45.9982C19.7169 46.1225 19.7641 46.1031 19.8851 45.9877C21.1371 44.797 22.132 43.4182 22.8887 41.8718C23.6071 40.4043 24.0696 38.859 24.2389 37.2256C24.3922 35.7469 24.3888 34.2621 24.4538 32.7801C24.4954 31.8314 24.5238 30.882 24.7031 29.9471C24.9124 28.8541 25.235 27.7993 25.8629 26.8095C25.2461 26.9354 24.7092 27.1557 24.1901 27.4231C22.8082 28.1355 21.6623 29.1548 20.5447 30.2129C19.3561 31.3375 18.2107 32.5105 16.866 33.4593C15.8978 34.1428 14.8612 34.6988 13.7553 35.1227C13.5899 35.186 13.5499 35.2503 13.5738 35.4323C13.7436 36.7123 13.3089 37.8342 12.6349 38.889C12.4167 39.2302 12.1614 39.5415 11.866 39.8528C12.2885 40.1601 12.6549 40.5136 12.9347 40.9641C13.6637 42.1365 13.5615 43.7639 12.666 44.8308C11.2636 46.502 8.73139 46.4676 7.40061 44.7471C6.83043 44.0102 6.64333 43.1746 6.74937 42.2375C6.97755 40.2251 9.12114 38.8069 11.1859 39.5371C11.2858 39.5726 11.3641 39.6014 11.4563 39.5032C12.4423 38.4507 13.093 37.2539 13.0857 35.7702C13.0857 35.6881 13.0696 35.6054 13.0591 35.5233C13.0452 35.4146 12.9975 35.3974 12.8892 35.4323C11.781 35.793 10.6446 36.0121 9.48256 36.1053C8.9568 36.1475 8.43048 36.1481 7.90472 36.1364C7.75037 36.1331 7.6993 36.1636 7.64322 36.3217C7.25237 37.4303 6.3785 38.1671 5.14876 38.2737C4.06947 38.3669 2.95076 37.7582 2.45664 36.7795C1.78653 35.4517 2.1896 33.8948 3.45376 33.0798C4.65575 32.3046 6.25914 32.5904 7.17575 33.7328C7.57827 34.2344 7.74982 34.8137 7.77813 35.4362C7.78535 35.5993 7.81755 35.6071 7.94913 35.6104C10.2193 35.6676 12.3773 35.1976 14.4382 34.2549C15.9805 33.5492 17.3102 32.5421 18.5388 31.3891C19.607 30.3871 20.6441 29.3495 21.7717 28.4141C22.9354 27.4481 24.1945 26.6452 25.6974 26.3001C25.7113 26.2968 25.7202 26.2751 25.7441 26.2474C25.0984 25.8396 24.3994 25.5733 23.6682 25.3841C22.2825 25.0256 20.8651 24.9602 19.4427 24.9196C17.9498 24.8775 16.4535 24.8952 14.9706 24.6622C13.727 24.4669 12.5272 24.1273 11.378 23.6152C11.187 23.5303 11.0926 23.5403 10.9633 23.7267C10.4775 24.4247 9.76793 24.8342 8.99733 25.1399C8.30001 25.4168 7.57382 25.5871 6.81932 25.5954C6.65721 25.5971 6.64333 25.6498 6.66498 25.788C6.91093 27.3399 6.13477 28.7903 4.72459 29.4222C3.34495 30.0409 1.68937 29.6591 0.736667 28.439C0.0460119 27.5546 -0.16385 26.557 0.138728 25.4329C0.760541 23.1247 3.6986 22.1582 5.59346 23.8366C5.94323 24.1462 6.21805 24.5113 6.4107 24.9335C6.45567 25.0323 6.48954 25.0828 6.60113 25.0789C8.00632 25.0317 9.28603 24.6494 10.3337 23.6657C10.699 23.3222 10.6918 23.3095 10.2654 23.0826C8.83744 22.323 7.57882 21.3409 6.46456 20.1735C6.35851 20.062 6.29522 20.0503 6.17086 20.1163C4.92113 20.7783 3.32107 20.4354 2.4894 19.1204C1.40345 17.4026 2.42444 15.2287 4.32597 14.8642C5.63843 14.6128 6.80766 15.1938 7.4056 16.3828C7.92637 17.4187 7.76758 18.6693 6.90482 19.5715C6.78379 19.698 6.79045 19.7368 6.90926 19.86C9.07228 22.1027 11.6867 23.5076 14.7435 24.0918C15.4509 24.2272 16.1704 24.2694 16.8882 24.3243C18.4067 24.4408 19.9312 24.3853 21.4486 24.4969C23.0431 24.6145 24.5876 24.9274 25.9817 25.7675C26.0033 25.7808 26.0339 25.7797 26.0877 25.7908C26.0122 25.3413 25.849 24.9363 25.6674 24.539C25.0045 23.0887 23.9841 21.8957 22.9054 20.7478C21.9055 19.6836 20.8584 18.6632 19.9473 17.518C19.0102 16.3401 18.2657 15.0523 17.7482 13.6369C17.7171 13.5514 17.6916 13.5176 17.595 13.537C16.3025 13.7933 15.1844 13.3234 14.1117 12.6859C13.7797 12.4883 13.4627 12.262 13.1951 11.9812C13.058 11.8375 12.9997 11.9024 12.9125 12.0184C11.9659 13.279 10.4303 13.7512 8.98234 13.1775C7.78757 12.7036 7.07693 11.8048 6.87928 10.527C6.65887 9.101 7.37562 7.74607 8.56539 7.11854C9.85787 6.43719 11.1315 6.53983 12.299 7.43147C13.3173 8.20881 13.8291 9.64197 13.4316 10.8832C13.3045 11.2793 13.4094 11.5024 13.7175 11.7465C14.6408 12.4778 15.6502 12.9938 16.8416 13.0748C17.53 13.1214 17.5539 13.0576 17.3452 12.4101C17.0798 11.5867 16.9299 10.7395 16.846 9.87612C16.78 9.19699 16.7406 8.51952 16.7544 7.83817C16.7567 7.715 16.7122 7.67172 16.5929 7.63232C15.8112 7.37543 15.2327 6.87607 14.8857 6.12758C14.1028 4.43863 15.1472 2.43675 17.0065 2.1732C18.2884 1.99176 19.2994 2.48502 19.9196 3.61968C20.8151 5.25925 19.8874 7.31218 18.0169 7.7039C17.8548 7.73774 17.6905 7.77825 17.5239 7.75384C17.3446 7.72776 17.2824 7.80044 17.2808 7.97466C17.2708 8.90625 17.3524 9.8284 17.5051 10.7478C17.6599 11.6833 17.9148 12.5888 18.2501 13.4737C18.8481 15.0495 19.7064 16.4693 20.8173 17.7366C22.0554 19.1487 23.41 20.4543 24.6104 21.9007C25.3771 22.8246 25.9994 23.8349 26.4136 24.9651C26.5019 25.2054 26.558 25.4573 26.6396 25.7403C26.9316 25.3236 27.1215 24.8841 27.2858 24.4319C27.7366 23.193 27.8682 21.8985 27.9576 20.5946C28.0209 19.673 27.9759 18.7503 28.0109 17.8287C28.0747 16.1448 28.2135 14.4691 28.7321 12.8523C28.9048 12.313 29.088 11.7737 29.345 11.2666C29.405 11.1484 29.3889 11.099 29.2806 11.0258C28.4417 10.4576 27.9848 9.61645 27.6667 8.69152C27.4574 8.08341 27.3053 7.45588 27.3152 6.80449C27.318 6.62139 27.2297 6.64914 27.1082 6.66745C26.1066 6.81947 25.19 6.59976 24.4216 5.94004C23.4345 5.09169 23.017 4.00974 23.2812 2.71306C23.576 1.26658 24.486 0.411562 25.9006 0.0625644C25.9417 0.0525772 25.9967 0.0658935 26.0056 0.000976562C26.357 0.000976562 26.7079 0.000976562 27.0593 0.000976562C27.0765 0.0187316 27.0921 0.0492481 27.1115 0.0520224C28.5483 0.270632 29.7364 1.39419 29.9224 3.06927C30.059 4.29992 29.4016 5.73253 27.9992 6.3878C27.8632 6.45161 27.8382 6.52818 27.8366 6.66134C27.8282 7.38986 27.9931 8.08508 28.2574 8.75533C28.5156 9.40894 28.8614 10.0115 29.4133 10.4731C29.5682 10.603 29.6748 10.6368 29.7581 10.3977C29.8142 10.2362 29.9191 10.0908 30.0051 9.93993C30.7558 8.62328 31.6796 7.44257 32.7927 6.41222C32.8638 6.34619 32.8849 6.31401 32.8288 6.21358C32.2886 5.25592 32.3813 3.95481 33.0887 3.10922C33.8476 2.20205 34.8381 1.85361 35.9884 2.14268C37.1526 2.43508 37.8733 3.23684 38.0726 4.39757C38.2747 5.57496 37.805 6.60641 36.7762 7.25947C35.6936 7.94692 34.3178 7.79878 33.3585 6.90991C33.2386 6.79839 33.1658 6.75511 33.0348 6.90659C32.8183 7.15682 32.5623 7.3721 32.3425 7.62012C30.7469 9.42004 29.6176 11.4652 29.0236 13.8083C28.7504 14.8853 28.6038 15.9783 28.5733 17.0758C28.5294 18.6443 28.4856 20.2123 28.379 21.777C28.2985 22.9544 28.0392 24.0996 27.549 25.1815C27.4168 25.4728 27.2631 25.7536 27.1032 26.0715C27.2009 26.0526 27.2553 26.046 27.3075 26.0321C28.2885 25.7675 29.1613 25.2842 29.9879 24.7066C31.3598 23.7489 32.5224 22.5527 33.721 21.4008C35.3366 19.8489 37.1066 18.5395 39.2229 17.7472C39.3634 17.6944 39.384 17.629 39.3623 17.5036C39.2096 16.6286 39.4034 15.8058 39.7509 15.0084C40.0707 14.2749 40.5021 13.6136 41.0739 13.0337C40.2017 12.4584 39.6954 11.6627 39.5394 10.6607C39.2807 8.99558 40.3933 7.25669 42.1904 6.90104C43.4379 6.65413 44.5211 7.0109 45.3683 7.94637C46.2006 8.86464 46.4498 9.97599 46.0879 11.1539C45.5105 13.0337 43.6245 13.9659 41.7518 13.3511C41.6042 13.3028 41.5248 13.3334 41.4209 13.4371C41.0329 13.8244 40.7231 14.2677 40.4727 14.7504C40.0674 15.5311 39.7687 16.3395 39.8498 17.2478C39.8703 17.4753 39.9275 17.4969 40.129 17.4326C41.6974 16.9326 43.3058 16.6985 44.9525 16.7523C45.1601 16.759 45.2479 16.7002 45.3195 16.5015C45.8402 15.0545 47.2188 14.4048 48.5196 14.6672C50.5682 15.08 51.4665 17.4093 50.2468 19.1054C49.2147 20.5408 46.9823 20.6224 45.8402 19.2708C45.4011 18.7514 45.1785 18.1505 45.1624 17.4803C45.1574 17.2628 45.0585 17.2772 44.9147 17.2789C44.3795 17.2833 43.8455 17.2855 43.3102 17.3355C41.1589 17.538 39.1524 18.1838 37.287 19.2719C35.7702 20.1563 34.5183 21.3631 33.2697 22.5721C32.5007 23.3173 31.7101 24.0397 30.8735 24.7066C29.772 25.5844 28.5727 26.289 27.1631 26.613C27.1987 26.6424 27.217 26.6608 27.2386 26.6746C27.293 26.709 27.348 26.7423 27.4041 26.7739C28.6866 27.4941 30.0945 27.7471 31.5347 27.8781C32.9327 28.0051 34.3373 27.9696 35.7375 28.0318C36.6324 28.0717 37.5235 28.1383 38.4046 28.3025C39.5139 28.5095 40.5859 28.8374 41.6164 29.299C41.728 29.349 41.8257 29.3934 41.914 29.2469C42.166 28.8285 42.5308 28.5239 42.9377 28.2631C43.8499 27.6795 44.8526 27.3732 45.9285 27.3066C46.1711 27.2916 46.2972 27.2694 46.2522 26.9543C46.1306 26.1065 46.3355 25.3258 46.8179 24.6084C48.061 22.7585 50.9258 22.7141 52.246 24.5129C52.5564 24.9363 52.7063 25.4129 52.8995 25.8801V27.2655C52.6941 27.6073 52.6213 28.004 52.4054 28.3491C51.1462 30.3599 48.121 30.4204 46.8029 28.449C46.7469 28.3652 46.6669 28.2876 46.6408 28.1949C46.5509 27.8781 46.3538 27.7815 46.034 27.8137C44.7304 27.9458 43.5268 28.3075 42.5691 29.2602C42.2476 29.5798 42.2487 29.5831 42.6446 29.794C44.0775 30.5591 45.3528 31.5301 46.4615 32.7163C46.5714 32.834 46.6364 32.8329 46.7713 32.7635C48.1843 32.0411 49.9359 32.6142 50.601 34.0424C51.2211 35.3735 50.7848 36.9459 49.444 37.7199C48.1804 38.4496 46.5598 38.0639 45.7309 36.8411C44.978 35.7308 45.0902 34.3065 46.0201 33.3306C46.1517 33.1924 46.1317 33.1297 46.0101 33.0049C43.8926 30.8349 41.3515 29.4361 38.3807 28.833C37.2942 28.6127 36.1861 28.5866 35.0807 28.5261C33.4967 28.4396 31.9033 28.4951 30.3283 28.2604C29.1002 28.0773 27.9226 27.7355 26.8206 27.0453C26.9583 27.6456 27.1615 28.1705 27.4207 28.6765C28.2019 30.2007 29.3511 31.438 30.5215 32.6592C31.633 33.8194 32.7711 34.9585 33.6677 36.3034C34.2734 37.2128 34.8003 38.1644 35.1579 39.2025C35.1884 39.2901 35.2228 39.3695 35.3505 39.3462C36.7041 39.0982 37.8633 39.6025 38.967 40.2983C39.2224 40.4592 39.4528 40.6601 39.6949 40.8426C39.6033 41.0102 39.5111 41.1777 39.4195 41.3459L39.4184 41.3453Z"
            fill="#151F24" />
        <path
            d="M39.4169 41.3453C39.5085 41.1777 39.6006 41.0102 39.6922 40.8421C40.2496 40.0631 40.9736 39.5293 41.9202 39.314C43.865 38.8718 45.8598 40.2362 46.138 42.2031C46.4555 44.4513 44.7711 46.3339 42.4976 46.2701C40.8892 46.2252 39.4291 44.9074 39.1909 43.3244C39.0871 42.6353 39.2031 41.9889 39.4174 41.3447L39.4169 41.3453Z"
            fill="#4DACE1" />
    </g>
    <path
        d="M85.8768 33.5562C85.2831 33.3308 84.6894 33.0678 84.0957 32.7671C83.5095 32.4665 82.9234 32.1284 82.3372 31.7526C80.7966 32.7897 79.0756 33.3082 77.1743 33.3082C75.8666 33.3082 74.6454 33.064 73.5106 32.5755C72.3758 32.0795 71.3801 31.3919 70.5233 30.5126C69.6741 29.6333 69.009 28.6113 68.5281 27.4464C68.0471 26.2816 67.8066 25.0265 67.8066 23.6813C67.8066 22.3361 68.0471 21.0773 68.5281 19.905C69.0166 18.7326 69.6892 17.7068 70.5459 16.8275C71.4026 15.9407 72.3984 15.2493 73.5332 14.7533C74.668 14.2573 75.8854 14.0093 77.1855 14.0093C78.4932 14.0093 79.7144 14.2573 80.8492 14.7533C81.984 15.2493 82.9797 15.9407 83.8364 16.8275C84.6932 17.7068 85.362 18.7326 85.843 19.905C86.324 21.0698 86.5644 22.3211 86.5644 23.6588C86.5644 24.6959 86.4066 25.6879 86.091 26.6348C85.7829 27.5817 85.3282 28.4459 84.727 29.2275C85.2004 29.4454 85.6664 29.6446 86.1248 29.825C86.5832 30.0053 87.0379 30.1631 87.4888 30.2984L85.8768 33.5562ZM77.1743 29.7911C77.535 29.7911 77.8844 29.7461 78.2226 29.6559C78.5683 29.5657 78.884 29.4417 79.1695 29.2839C78.6886 28.863 78.2264 28.4271 77.783 27.9762C77.3471 27.5253 76.945 27.0631 76.5768 26.5897L78.1324 24.6508C79.1244 25.6954 80.2066 26.616 81.379 27.4126C81.7848 26.9091 82.0929 26.3342 82.3033 25.6879C82.5213 25.0416 82.6303 24.3652 82.6303 23.6588C82.6303 22.7645 82.495 21.9453 82.2244 21.2013C81.9614 20.4498 81.5857 19.7998 81.0972 19.2511C80.6162 18.7025 80.0413 18.2779 79.3724 17.9773C78.7111 17.6767 77.9821 17.5264 77.1855 17.5264C76.3964 17.5264 75.6675 17.6767 74.9986 17.9773C74.3373 18.2779 73.7624 18.7063 73.2739 19.2624C72.7854 19.811 72.4059 20.4611 72.1353 21.2126C71.8723 21.9566 71.7408 22.7795 71.7408 23.6813C71.7408 24.5831 71.8723 25.4061 72.1353 26.1501C72.3984 26.8941 72.7704 27.5404 73.2513 28.089C73.7398 28.6301 74.3147 29.0509 74.9761 29.3515C75.6449 29.6446 76.3777 29.7911 77.1743 29.7911ZM96.0675 33.3082C93.9633 33.3082 92.4452 32.8911 91.5133 32.057C90.5815 31.2228 90.1155 29.8588 90.1155 27.965V21.4042H93.5763V27.1533C93.5763 28.3708 93.7641 29.2313 94.1399 29.7348C94.5232 30.2383 95.1657 30.4901 96.0675 30.4901C96.9844 30.4901 97.6269 30.2383 97.9952 29.7348C98.3709 29.2313 98.5588 28.3708 98.5588 27.1533V21.4042H102.02V27.965C102.02 29.8588 101.554 31.2228 100.622 32.057C99.6973 32.8911 98.1793 33.3082 96.0675 33.3082ZM110.634 33.3082C109.574 33.3082 108.609 33.0452 107.737 32.5191C106.873 31.9856 106.185 31.2566 105.674 30.3322C105.17 29.4004 104.919 28.3407 104.919 27.1533C104.919 25.996 105.163 24.9589 105.651 24.0421C106.14 23.1177 106.813 22.3887 107.669 21.8551C108.534 21.3141 109.522 21.0435 110.634 21.0435C111.453 21.0435 112.216 21.2013 112.922 21.517C113.636 21.8251 114.219 22.2572 114.67 22.8133V21.4042H118.13V32.9475H114.67V31.4257C114.144 32.0344 113.539 32.5004 112.855 32.8235C112.171 33.1467 111.431 33.3082 110.634 33.3082ZM111.66 30.3661C112.261 30.3661 112.795 30.2308 113.261 29.9602C113.726 29.6822 114.091 29.3027 114.354 28.8217C114.617 28.3407 114.749 27.7921 114.749 27.1759C114.749 26.5521 114.613 26.0035 114.343 25.5301C114.08 25.0491 113.715 24.6733 113.249 24.4028C112.791 24.1247 112.261 23.9857 111.66 23.9857C111.066 23.9857 110.536 24.1247 110.07 24.4028C109.604 24.6733 109.236 25.0491 108.966 25.5301C108.695 26.011 108.56 26.5596 108.56 27.1759C108.56 27.7921 108.691 28.3407 108.954 28.8217C109.225 29.3027 109.593 29.6822 110.059 29.9602C110.525 30.2308 111.059 30.3661 111.66 30.3661ZM122.201 32.9475V21.4042H125.662V22.6893C126.105 22.1933 126.658 21.795 127.319 21.4944C127.988 21.1938 128.724 21.0435 129.529 21.0435C130.415 21.0435 131.193 21.2389 131.862 21.6297C132.538 22.013 133.068 22.5503 133.451 23.2417C133.835 23.9256 134.026 24.7259 134.026 25.6428V32.9475H130.566V26.3755C130.566 25.5488 130.348 24.9063 129.912 24.4479C129.483 23.9819 128.893 23.749 128.142 23.749C127.631 23.749 127.188 23.8542 126.812 24.0646C126.444 24.2675 126.158 24.5493 125.955 24.9101C125.76 25.2633 125.662 25.6653 125.662 26.1162V32.9475H122.201ZM141.725 33.3082C140.575 33.3082 139.68 32.9438 139.042 32.2148C138.403 31.4783 138.083 30.4525 138.083 29.1373V24.0308H136.539V21.4042H138.083V17.0755H141.544V21.4042H144.081V24.0308H141.544V28.8893C141.544 29.3252 141.631 29.6559 141.803 29.8813C141.984 30.1068 142.236 30.2195 142.559 30.2195C142.919 30.2195 143.265 30.0993 143.596 29.8588L144.464 32.6319C144.073 32.8423 143.633 33.0076 143.145 33.1279C142.664 33.2481 142.19 33.3082 141.725 33.3082Z"
        fill="#151F24" />
    <path
        d="M147.455 32.9475V13.5584H150.916V32.9475H147.455ZM154.973 32.9475V21.4042H158.434V32.9475H154.973ZM156.709 19.0031C156.334 19.0031 155.988 18.913 155.672 18.7326C155.364 18.5447 155.116 18.293 154.928 17.9773C154.74 17.6617 154.646 17.316 154.646 16.9402C154.646 16.5645 154.74 16.2225 154.928 15.9144C155.116 15.6063 155.364 15.3621 155.672 15.1817C155.988 14.9938 156.334 14.8999 156.709 14.8999C157.085 14.8999 157.427 14.9938 157.735 15.1817C158.043 15.3621 158.288 15.6063 158.468 15.9144C158.656 16.2225 158.75 16.5645 158.75 16.9402C158.75 17.316 158.656 17.6617 158.468 17.9773C158.288 18.293 158.043 18.5447 157.735 18.7326C157.427 18.913 157.085 19.0031 156.709 19.0031ZM162.514 32.9475V21.4042H165.975V22.6893C166.419 22.1933 166.971 21.795 167.632 21.4944C168.301 21.1938 169.038 21.0435 169.842 21.0435C170.728 21.0435 171.506 21.2389 172.175 21.6297C172.852 22.013 173.381 22.5503 173.765 23.2417C174.148 23.9256 174.34 24.7259 174.34 25.6428V32.9475H170.879V26.3755C170.879 25.5488 170.661 24.9063 170.225 24.4479C169.797 23.9819 169.207 23.749 168.455 23.749C167.944 23.749 167.501 23.8542 167.125 24.0646C166.757 24.2675 166.471 24.5493 166.268 24.9101C166.073 25.2633 165.975 25.6653 165.975 26.1162V32.9475H162.514ZM178.191 32.9475V13.5584H181.651V25.6202L185.912 21.4042H190.399L184.751 27.0631L190.658 32.9475H186.217L181.651 28.3821V32.9475H178.191Z"
        fill="#4DACE1" />
    <path d="M190.77 13.9475H194.464V14.6666H193.041V17.756H192.193V14.6666H190.77V13.9475Z"
        fill="#151F24" />
    <path
        d="M198.542 17.756V15.5455H198.515L197.42 17.3299H197.174L196.079 15.5455H196.052V17.756H195.23V13.9475H196.052L197.338 16.0249L198.624 13.9475H199.418V17.756H198.542Z"
        fill="#151F24" />
    <defs>
        <clipPath id="clip0_2002_1614">
            <rect width="52.8951" height="52.8951" fill="white" />
        </clipPath>
    </defs>
</svg>